<svg width="61" height="61" viewBox="0 0 61 61" fill="none" xmlns="http://www.w3.org/2000/svg">
<g clip-path="url(#clip0_403_274)">
<path d="M30.375 6C25.5541 6 20.8414 7.42957 16.833 10.1079C12.8245 12.7863 9.70033 16.5931 7.85545 21.0471C6.01056 25.501 5.52785 30.402 6.46837 35.1303C7.40888 39.8586 9.73038 44.2018 13.1393 47.6107C16.5482 51.0196 20.8914 53.3411 25.6197 54.2816C30.348 55.2222 35.249 54.7394 39.7029 52.8946C44.1569 51.0497 47.9637 47.9255 50.6421 43.917C53.3204 39.9086 54.75 35.1959 54.75 30.375C54.7427 23.9126 52.1723 17.717 47.6027 13.1474C43.033 8.57774 36.8374 6.00731 30.375 6ZM37.0838 39.904C36.8609 40.3485 36.4706 40.6863 35.9987 40.843C35.5268 40.9998 35.012 40.9627 34.5674 40.7399C33.2628 40.0873 31.8237 39.7484 30.365 39.75C28.9062 39.7516 27.4679 40.0938 26.1647 40.7493C25.9449 40.8601 25.7053 40.9265 25.4598 40.9448C25.2142 40.963 24.9675 40.9327 24.7337 40.8556C24.4998 40.7785 24.2835 40.6561 24.097 40.4954C23.9104 40.3347 23.7574 40.1388 23.6466 39.9189C23.5357 39.699 23.4693 39.4595 23.4511 39.214C23.4328 38.9684 23.4631 38.7217 23.5402 38.4878C23.696 38.0156 24.0329 37.6246 24.4769 37.4007C26.3024 36.4819 28.3172 36.0023 30.3608 36C32.4044 35.9977 34.4203 36.4729 36.2478 37.3877C36.6923 37.6105 37.0301 38.0008 37.1869 38.4727C37.3437 38.9446 37.3066 39.4595 37.0838 39.904ZM40.5519 33.2697C40.3258 33.7126 39.9331 34.0476 39.4601 34.201C38.9871 34.3544 38.4725 34.3136 38.0295 34.0877C35.6554 32.8781 33.0285 32.2483 30.364 32.25C27.6995 32.2517 25.0734 32.8849 22.7008 34.0975C22.4816 34.2102 22.2423 34.2785 21.9967 34.2985C21.7511 34.3186 21.5039 34.29 21.2693 34.2145C21.0347 34.1389 20.8173 34.0179 20.6295 33.8582C20.4418 33.6986 20.2873 33.5035 20.175 33.2841C20.0628 33.0647 19.9948 32.8253 19.9751 32.5797C19.9554 32.334 19.9843 32.0869 20.0602 31.8524C20.1361 31.6179 20.2575 31.4007 20.4174 31.2132C20.5774 31.0256 20.7727 30.8715 20.9922 30.7595C23.8929 29.2765 27.1038 28.5021 30.3617 28.5C33.6195 28.4979 36.8314 29.2681 39.734 30.7474C39.9533 30.8593 40.1485 31.0133 40.3083 31.2006C40.4681 31.3879 40.5894 31.6049 40.6654 31.8391C40.7413 32.0733 40.7704 32.3202 40.7509 32.5657C40.7314 32.8111 40.6638 33.0504 40.5519 33.2697ZM44.0269 26.6218C43.7995 27.0641 43.4058 27.3979 42.9323 27.5499C42.4589 27.7019 41.9444 27.6596 41.5021 27.4323C38.0546 25.6676 34.2367 24.7482 30.3638 24.75C26.4908 24.7518 22.6739 25.6748 19.228 27.4428C19.0091 27.556 18.77 27.6249 18.5244 27.6457C18.2788 27.6664 18.0316 27.6385 17.7968 27.5636C17.562 27.4887 17.3443 27.3682 17.1561 27.2091C16.9679 27.0499 16.8129 26.8553 16.7 26.6362C16.5871 26.4171 16.5185 26.1779 16.4982 25.9323C16.4778 25.6867 16.506 25.4395 16.5813 25.2048C16.6565 24.9701 16.7773 24.7526 16.9367 24.5646C17.0961 24.3766 17.291 24.2219 17.5102 24.1094C21.4868 22.068 25.892 21.0022 30.362 21C34.8319 20.9979 39.2381 22.0594 43.2166 24.097C43.4356 24.2096 43.6303 24.3642 43.7895 24.552C43.9488 24.7398 44.0694 24.9571 44.1447 25.1916C44.2199 25.426 44.2483 25.673 44.228 25.9184C44.2078 26.1638 44.1395 26.4028 44.0269 26.6218Z" fill="#4DFF74"/>
<g filter="url(#filter0_f_403_274)">
<circle cx="30" cy="30" r="23.5" stroke="#4DFF74"/>
</g>
</g>
<defs>
<filter id="filter0_f_403_274" x="-5" y="-5" width="70" height="70" filterUnits="userSpaceOnUse" color-interpolation-filters="sRGB">
<feFlood flood-opacity="0" result="BackgroundImageFix"/>
<feBlend mode="normal" in="SourceGraphic" in2="BackgroundImageFix" result="shape"/>
<feGaussianBlur stdDeviation="5.5" result="effect1_foregroundBlur_403_274"/>
</filter>
<clipPath id="clip0_403_274">
<rect width="61" height="61" fill="white"/>
</clipPath>
</defs>
</svg>
