<svg width="142" height="142" viewBox="0 0 142 142" fill="none" xmlns="http://www.w3.org/2000/svg">
<g filter="url(#filter0_dddddd_228_11)">
<path d="M121 71C121 98.6125 98.6125 121 71 121C43.3875 121 21 98.6125 21 71C21 43.3875 43.3875 21 71 21C98.6125 21 121 43.3875 121 71Z" fill="url(#paint0_linear_228_11)"/>
</g>
<path opacity="0.05" d="M36.6978 70.0651C57.0853 60.8276 81.0303 50.8051 84.7178 49.3551C92.8478 46.1576 96.3928 49.4251 95.8378 54.6376C95.1553 61.0251 91.9203 79.6126 89.9303 92.9301C88.7653 100.723 84.5453 103.11 79.7828 100.088C76.1703 97.7951 63.7503 89.6626 60.4828 86.8826C58.2553 84.9876 56.7028 82.8626 58.2828 80.6976C58.7453 80.0651 59.9278 78.7901 60.5853 78.1551C63.8828 74.9601 63.4378 74.2726 59.4503 77.1251C58.9753 77.4651 56.2203 79.4626 55.0878 80.2176C52.3128 82.0676 49.7603 82.1676 45.4328 80.6976C41.8928 79.4951 38.4928 78.5676 36.3478 77.6401C33.3853 76.3576 32.2503 72.0801 36.6978 70.0651Z" fill="black"/>
<path opacity="0.07" d="M38.4899 70.376C57.4199 61.9135 80.6999 52.216 84.1049 50.8435C92.2649 47.5485 95.2674 49.5035 94.3899 55.871C93.5749 61.766 90.6824 80.006 88.6549 92.2335C87.4599 99.431 83.9699 101.016 79.4249 98.076C76.5774 96.241 65.1174 88.691 62.3374 86.4935C60.1874 84.796 57.9599 82.836 60.5624 79.9985C61.4324 79.051 66.2374 74.4135 69.8299 70.9635C71.9124 68.961 71.1699 67.9735 68.6574 69.6935C64.0499 72.851 56.5124 77.8485 55.1674 78.756C52.6049 80.481 50.1974 80.896 46.0074 79.5785C42.7049 78.5385 39.5149 77.531 37.8524 76.8835C34.1374 75.4435 34.0874 72.3435 38.4899 70.376Z" fill="black"/>
<path d="M40.2815 70.6927C57.7565 63.0052 80.369 53.6327 83.4915 52.3352C91.679 48.9402 94.1915 49.5902 92.939 57.1102C92.039 62.5152 89.444 80.4077 87.374 91.5452C86.1465 98.1502 83.3915 98.9327 79.0615 96.0752C76.979 94.7002 66.4665 87.7477 64.184 86.1152C62.1015 84.6277 59.229 82.8377 62.8315 79.3127C64.114 78.0577 72.5165 70.0327 79.064 63.7877C79.9215 62.9677 78.844 61.6202 77.854 62.2777C69.029 68.1302 56.794 76.2527 55.2365 77.3102C52.884 78.9077 50.624 79.6402 46.569 78.4752C43.504 77.5952 40.5115 76.5452 39.3464 76.1452C34.8589 74.6052 35.924 72.6102 40.2815 70.6927Z" fill="white"/>
<defs>
<filter id="filter0_dddddd_228_11" x="0.299999" y="0.299999" width="141.4" height="141.4" filterUnits="userSpaceOnUse" color-interpolation-filters="sRGB">
<feFlood flood-opacity="0" result="BackgroundImageFix"/>
<feColorMatrix in="SourceAlpha" type="matrix" values="0 0 0 0 0 0 0 0 0 0 0 0 0 0 0 0 0 0 127 0" result="hardAlpha"/>
<feOffset/>
<feGaussianBlur stdDeviation="0.25"/>
<feColorMatrix type="matrix" values="0 0 0 0 0.880117 0 0 0 0 0.91087 0 0 0 0 1 0 0 0 1 0"/>
<feBlend mode="normal" in2="BackgroundImageFix" result="effect1_dropShadow_228_11"/>
<feColorMatrix in="SourceAlpha" type="matrix" values="0 0 0 0 0 0 0 0 0 0 0 0 0 0 0 0 0 0 127 0" result="hardAlpha"/>
<feOffset/>
<feGaussianBlur stdDeviation="0.8"/>
<feColorMatrix type="matrix" values="0 0 0 0 0.880117 0 0 0 0 0.91087 0 0 0 0 1 0 0 0 1 0"/>
<feBlend mode="normal" in2="effect1_dropShadow_228_11" result="effect2_dropShadow_228_11"/>
<feColorMatrix in="SourceAlpha" type="matrix" values="0 0 0 0 0 0 0 0 0 0 0 0 0 0 0 0 0 0 127 0" result="hardAlpha"/>
<feOffset/>
<feGaussianBlur stdDeviation="2.8"/>
<feColorMatrix type="matrix" values="0 0 0 0 0.880117 0 0 0 0 0.91087 0 0 0 0 1 0 0 0 1 0"/>
<feBlend mode="normal" in2="effect2_dropShadow_228_11" result="effect3_dropShadow_228_11"/>
<feColorMatrix in="SourceAlpha" type="matrix" values="0 0 0 0 0 0 0 0 0 0 0 0 0 0 0 0 0 0 127 0" result="hardAlpha"/>
<feOffset/>
<feGaussianBlur stdDeviation="6.35"/>
<feColorMatrix type="matrix" values="0 0 0 0 0.054902 0 0 0 0 0.333333 0 0 0 0 0.882353 0 0 0 1 0"/>
<feBlend mode="normal" in2="effect3_dropShadow_228_11" result="effect4_dropShadow_228_11"/>
<feColorMatrix in="SourceAlpha" type="matrix" values="0 0 0 0 0 0 0 0 0 0 0 0 0 0 0 0 0 0 127 0" result="hardAlpha"/>
<feOffset/>
<feGaussianBlur stdDeviation="5.95"/>
<feColorMatrix type="matrix" values="0 0 0 0 0.054902 0 0 0 0 0.333333 0 0 0 0 0.882353 0 0 0 1 0"/>
<feBlend mode="normal" in2="effect4_dropShadow_228_11" result="effect5_dropShadow_228_11"/>
<feColorMatrix in="SourceAlpha" type="matrix" values="0 0 0 0 0 0 0 0 0 0 0 0 0 0 0 0 0 0 127 0" result="hardAlpha"/>
<feOffset/>
<feGaussianBlur stdDeviation="10.35"/>
<feColorMatrix type="matrix" values="0 0 0 0 0.054902 0 0 0 0 0.333333 0 0 0 0 0.882353 0 0 0 1 0"/>
<feBlend mode="normal" in2="effect5_dropShadow_228_11" result="effect6_dropShadow_228_11"/>
<feBlend mode="normal" in="SourceGraphic" in2="effect6_dropShadow_228_11" result="shape"/>
</filter>
<linearGradient id="paint0_linear_228_11" x1="35.645" y1="35.645" x2="106.355" y2="106.355" gradientUnits="userSpaceOnUse">
<stop stop-color="#33BEF0"/>
<stop offset="1" stop-color="#0A85D9"/>
</linearGradient>
</defs>
</svg>
